<mxfile host="65bd71144e">
    <diagram id="gZ7RBDri6QLaGe6T0WJ1" name="Design">
        <mxGraphModel dx="2373" dy="937" grid="1" gridSize="10" guides="1" tooltips="1" connect="1" arrows="1" fold="1" page="1" pageScale="1" pageWidth="850" pageHeight="1100" math="0" shadow="0">
            <root>
                <mxCell id="0"/>
                <mxCell id="1" parent="0"/>
                <mxCell id="137" value="" style="rounded=0;whiteSpace=wrap;html=1;" parent="1" vertex="1">
                    <mxGeometry x="-70" y="80" width="1000" height="620" as="geometry"/>
                </mxCell>
                <mxCell id="12" style="edgeStyle=none;html=1;entryX=0.5;entryY=0;entryDx=0;entryDy=0;" parent="1" source="3" target="9" edge="1">
                    <mxGeometry relative="1" as="geometry">
                        <Array as="points">
                            <mxPoint x="620" y="130"/>
                            <mxPoint x="503" y="130"/>
                        </Array>
                    </mxGeometry>
                </mxCell>
                <mxCell id="3" value="" style="shape=mxgraph.signs.tech.camera_2;html=1;pointerEvents=1;fillColor=#000000;strokeColor=none;verticalLabelPosition=bottom;verticalAlign=top;align=center;" parent="1" vertex="1">
                    <mxGeometry x="600" y="174" width="40" height="26" as="geometry"/>
                </mxCell>
                <mxCell id="95" style="edgeStyle=orthogonalEdgeStyle;html=1;fontSize=8;entryX=1;entryY=0.5;entryDx=0;entryDy=0;exitX=0.4;exitY=0.1;exitDx=0;exitDy=0;exitPerimeter=0;" parent="1" source="4" target="96" edge="1">
                    <mxGeometry relative="1" as="geometry">
                        <mxPoint x="850" y="250" as="targetPoint"/>
                        <Array as="points">
                            <mxPoint x="783" y="280"/>
                        </Array>
                    </mxGeometry>
                </mxCell>
                <mxCell id="97" value="&lt;b&gt;Text&lt;/b&gt;" style="edgeLabel;html=1;align=center;verticalAlign=middle;resizable=0;points=[];fontSize=8;" parent="95" vertex="1" connectable="0">
                    <mxGeometry x="0.5531" y="1" relative="1" as="geometry">
                        <mxPoint y="-11" as="offset"/>
                    </mxGeometry>
                </mxCell>
                <mxCell id="128" style="edgeStyle=orthogonalEdgeStyle;html=1;fontSize=11;exitX=0.31;exitY=0.8;exitDx=0;exitDy=0;exitPerimeter=0;" parent="1" source="4" target="108" edge="1">
                    <mxGeometry relative="1" as="geometry">
                        <Array as="points">
                            <mxPoint x="772" y="590"/>
                            <mxPoint x="390" y="590"/>
                        </Array>
                    </mxGeometry>
                </mxCell>
                <mxCell id="129" value="&lt;b style=&quot;font-size: 9px;&quot;&gt;List of Task / Completion Status&lt;/b&gt;" style="edgeLabel;html=1;align=center;verticalAlign=middle;resizable=0;points=[];fontSize=9;" parent="128" vertex="1" connectable="0">
                    <mxGeometry x="0.4662" y="-1" relative="1" as="geometry">
                        <mxPoint x="16" y="-9" as="offset"/>
                    </mxGeometry>
                </mxCell>
                <mxCell id="135" style="edgeStyle=orthogonalEdgeStyle;html=1;exitX=0.753;exitY=0.861;exitDx=0;exitDy=0;exitPerimeter=0;entryX=-0.006;entryY=0.522;entryDx=0;entryDy=0;entryPerimeter=0;fontSize=12;" parent="1" source="4" target="66" edge="1">
                    <mxGeometry relative="1" as="geometry"/>
                </mxCell>
                <mxCell id="136" value="&lt;b style=&quot;font-size: 10px;&quot;&gt;&lt;font style=&quot;font-size: 10px;&quot;&gt;Audio&lt;/font&gt;&lt;/b&gt;" style="edgeLabel;html=1;align=center;verticalAlign=middle;resizable=0;points=[];fontSize=10;" parent="135" vertex="1" connectable="0">
                    <mxGeometry x="0.1531" y="1" relative="1" as="geometry">
                        <mxPoint x="13" y="-5" as="offset"/>
                    </mxGeometry>
                </mxCell>
                <mxCell id="4" value="&lt;b&gt;&lt;font style=&quot;font-size: 18px;&quot;&gt;OpenAI&lt;/font&gt;&lt;/b&gt;" style="ellipse;shape=cloud;whiteSpace=wrap;html=1;" parent="1" vertex="1">
                    <mxGeometry x="735.33" y="380" width="120" height="60" as="geometry"/>
                </mxCell>
                <mxCell id="10" style="edgeStyle=orthogonalEdgeStyle;html=1;entryX=0;entryY=0.5;entryDx=0;entryDy=0;exitX=0.75;exitY=1;exitDx=0;exitDy=0;" parent="1" source="7" target="9" edge="1">
                    <mxGeometry relative="1" as="geometry"/>
                </mxCell>
                <mxCell id="14" value="&lt;b&gt;&lt;font style=&quot;font-size: 8px;&quot;&gt;New Thread&lt;/font&gt;&lt;/b&gt;" style="edgeLabel;html=1;align=center;verticalAlign=middle;resizable=0;points=[];" parent="10" vertex="1" connectable="0">
                    <mxGeometry x="0.1487" y="2" relative="1" as="geometry">
                        <mxPoint x="6" y="-8" as="offset"/>
                    </mxGeometry>
                </mxCell>
                <mxCell id="17" style="edgeStyle=orthogonalEdgeStyle;html=1;entryX=1;entryY=0.5;entryDx=0;entryDy=0;fontSize=8;exitX=0.25;exitY=1;exitDx=0;exitDy=0;" parent="1" source="7" target="16" edge="1">
                    <mxGeometry relative="1" as="geometry"/>
                </mxCell>
                <mxCell id="19" style="edgeStyle=orthogonalEdgeStyle;html=1;entryX=0.5;entryY=0;entryDx=0;entryDy=0;fontSize=8;" parent="1" source="7" target="15" edge="1">
                    <mxGeometry relative="1" as="geometry"/>
                </mxCell>
                <mxCell id="7" value="&lt;b&gt;Start&lt;/b&gt;" style="rounded=1;whiteSpace=wrap;html=1;" parent="1" vertex="1">
                    <mxGeometry x="330" y="120" width="85" height="40" as="geometry"/>
                </mxCell>
                <mxCell id="11" style="html=1;entryX=0.027;entryY=0.606;entryDx=0;entryDy=0;entryPerimeter=0;" parent="1" source="9" target="3" edge="1">
                    <mxGeometry relative="1" as="geometry"/>
                </mxCell>
                <mxCell id="9" value="&lt;b&gt;Camera snapshot&lt;/b&gt;" style="rounded=1;whiteSpace=wrap;html=1;" parent="1" vertex="1">
                    <mxGeometry x="460" y="170" width="85" height="40" as="geometry"/>
                </mxCell>
                <mxCell id="13" value="&lt;span&gt;Interval&lt;/span&gt;" style="text;html=1;align=center;verticalAlign=middle;resizable=0;points=[];autosize=1;strokeColor=none;fillColor=none;fontStyle=1" parent="1" vertex="1">
                    <mxGeometry x="530" y="105" width="70" height="30" as="geometry"/>
                </mxCell>
                <mxCell id="21" style="edgeStyle=orthogonalEdgeStyle;html=1;entryX=1;entryY=0.5;entryDx=0;entryDy=0;entryPerimeter=0;fontSize=8;" parent="1" source="15" target="20" edge="1">
                    <mxGeometry relative="1" as="geometry"/>
                </mxCell>
                <mxCell id="15" value="&lt;b&gt;Create Queue&lt;/b&gt;" style="rounded=1;whiteSpace=wrap;html=1;" parent="1" vertex="1">
                    <mxGeometry x="330" y="220" width="85" height="40" as="geometry"/>
                </mxCell>
                <mxCell id="23" style="edgeStyle=orthogonalEdgeStyle;html=1;entryX=0.5;entryY=0;entryDx=0;entryDy=0;fontSize=8;" parent="1" source="16" target="22" edge="1">
                    <mxGeometry relative="1" as="geometry"/>
                </mxCell>
                <mxCell id="16" value="&lt;b&gt;Setup GPIO&lt;/b&gt;" style="rounded=1;whiteSpace=wrap;html=1;" parent="1" vertex="1">
                    <mxGeometry x="170" y="170" width="85" height="40" as="geometry"/>
                </mxCell>
                <mxCell id="18" value="&lt;b&gt;&lt;font style=&quot;font-size: 8px;&quot;&gt;New Thread&lt;/font&gt;&lt;/b&gt;" style="edgeLabel;html=1;align=center;verticalAlign=middle;resizable=0;points=[];" parent="1" vertex="1" connectable="0">
                    <mxGeometry x="310.00437140730793" y="180.00138358910257" as="geometry"/>
                </mxCell>
                <mxCell id="48" style="edgeStyle=orthogonalEdgeStyle;html=1;entryX=1;entryY=0.5;entryDx=0;entryDy=0;fontSize=8;" parent="1" source="20" target="43" edge="1">
                    <mxGeometry relative="1" as="geometry">
                        <Array as="points">
                            <mxPoint x="310" y="400"/>
                        </Array>
                    </mxGeometry>
                </mxCell>
                <mxCell id="53" value="&lt;b&gt;Task&lt;/b&gt;" style="edgeLabel;html=1;align=center;verticalAlign=middle;resizable=0;points=[];fontSize=8;" parent="48" vertex="1" connectable="0">
                    <mxGeometry x="0.3489" relative="1" as="geometry">
                        <mxPoint x="-4" y="10" as="offset"/>
                    </mxGeometry>
                </mxCell>
                <mxCell id="86" style="edgeStyle=orthogonalEdgeStyle;html=1;entryX=0.5;entryY=0;entryDx=0;entryDy=0;fontSize=8;" parent="1" source="20" target="85" edge="1">
                    <mxGeometry relative="1" as="geometry">
                        <Array as="points">
                            <mxPoint x="388" y="320"/>
                        </Array>
                    </mxGeometry>
                </mxCell>
                <mxCell id="20" value="&lt;b&gt;Command&lt;br&gt;Queue&lt;/b&gt;" style="shape=cylinder3;whiteSpace=wrap;html=1;boundedLbl=1;backgroundOutline=1;size=15;fontSize=8;" parent="1" vertex="1">
                    <mxGeometry x="280" y="270" width="60" height="80" as="geometry"/>
                </mxCell>
                <mxCell id="42" style="edgeStyle=none;html=1;entryX=0.5;entryY=0;entryDx=0;entryDy=0;fontSize=8;" parent="1" target="41" edge="1">
                    <mxGeometry relative="1" as="geometry">
                        <mxPoint x="200" y="290" as="sourcePoint"/>
                    </mxGeometry>
                </mxCell>
                <mxCell id="57" style="edgeStyle=none;html=1;entryX=1;entryY=0.5;entryDx=0;entryDy=0;fontSize=8;exitX=0.122;exitY=1.045;exitDx=0;exitDy=0;exitPerimeter=0;" parent="1" source="22" target="34" edge="1">
                    <mxGeometry relative="1" as="geometry">
                        <Array as="points">
                            <mxPoint x="150" y="311"/>
                        </Array>
                    </mxGeometry>
                </mxCell>
                <mxCell id="58" value="&lt;b&gt;Essential&amp;nbsp;&lt;span style=&quot;border-color: var(--border-color); background-color: rgb(251, 251, 251);&quot;&gt;Motor Instructions&lt;/span&gt;&lt;/b&gt;" style="edgeLabel;html=1;align=center;verticalAlign=middle;resizable=0;points=[];fontSize=8;" parent="57" vertex="1" connectable="0">
                    <mxGeometry x="0.2994" relative="1" as="geometry">
                        <mxPoint x="11" y="9" as="offset"/>
                    </mxGeometry>
                </mxCell>
                <mxCell id="22" value="&lt;b&gt;Robot Loop&lt;/b&gt;" style="rounded=1;whiteSpace=wrap;html=1;" parent="1" vertex="1">
                    <mxGeometry x="140" y="250" width="85" height="40" as="geometry"/>
                </mxCell>
                <mxCell id="33" value="" style="group" parent="1" vertex="1" connectable="0">
                    <mxGeometry x="-30" y="250" width="66.21" height="80" as="geometry"/>
                </mxCell>
                <mxCell id="34" value="" style="ellipse;shape=doubleEllipse;whiteSpace=wrap;html=1;aspect=fixed;fontSize=8;" parent="33" vertex="1">
                    <mxGeometry x="16.73690859957418" y="46.666666666666664" width="28.959454139876655" height="28.959454139876655" as="geometry"/>
                </mxCell>
                <mxCell id="35" value="" style="shape=delay;whiteSpace=wrap;html=1;fontSize=8;fillColor=#FFFFFF;" parent="33" vertex="1">
                    <mxGeometry x="7.313462618540687" width="58.89653738145931" height="33.33333333333333" as="geometry"/>
                </mxCell>
                <mxCell id="36" value="" style="shape=corner;whiteSpace=wrap;html=1;fontSize=8;fillColor=#FFFFFF;dx=10;dy=10;rotation=-45;" parent="33" vertex="1">
                    <mxGeometry x="11.483337465148004" y="20.599999999999998" width="35.337922428875586" height="44.44444444444444" as="geometry"/>
                </mxCell>
                <mxCell id="37" style="html=1;entryX=0;entryY=0.25;entryDx=0;entryDy=0;fontSize=8;exitX=1.013;exitY=0.331;exitDx=0;exitDy=0;exitPerimeter=0;" parent="1" source="35" target="22" edge="1">
                    <mxGeometry relative="1" as="geometry"/>
                </mxCell>
                <mxCell id="38" value="&lt;b&gt;Sensor Data&lt;/b&gt;" style="edgeLabel;html=1;align=center;verticalAlign=middle;resizable=0;points=[];fontSize=8;" parent="37" vertex="1" connectable="0">
                    <mxGeometry x="-0.17" relative="1" as="geometry">
                        <mxPoint y="-8" as="offset"/>
                    </mxGeometry>
                </mxCell>
                <mxCell id="46" style="edgeStyle=orthogonalEdgeStyle;html=1;entryX=0;entryY=0.5;entryDx=0;entryDy=0;entryPerimeter=0;fontSize=8;" parent="1" source="41" target="20" edge="1">
                    <mxGeometry relative="1" as="geometry"/>
                </mxCell>
                <mxCell id="41" value="&lt;b&gt;Get Task&lt;/b&gt;" style="rounded=1;whiteSpace=wrap;html=1;" parent="1" vertex="1">
                    <mxGeometry x="158" y="320" width="85" height="40" as="geometry"/>
                </mxCell>
                <mxCell id="49" style="edgeStyle=orthogonalEdgeStyle;html=1;entryX=0.5;entryY=1;entryDx=0;entryDy=0;fontSize=8;" parent="1" source="43" target="34" edge="1">
                    <mxGeometry relative="1" as="geometry"/>
                </mxCell>
                <mxCell id="50" value="&lt;b style=&quot;border-color: var(--border-color); background-color: rgb(251, 251, 251);&quot;&gt;Task Motor Instructions&lt;/b&gt;" style="edgeLabel;html=1;align=center;verticalAlign=middle;resizable=0;points=[];fontSize=8;" parent="49" vertex="1" connectable="0">
                    <mxGeometry x="-0.3755" y="1" relative="1" as="geometry">
                        <mxPoint x="-10" y="9" as="offset"/>
                    </mxGeometry>
                </mxCell>
                <mxCell id="43" value="&lt;b&gt;Handle Task&lt;/b&gt;" style="rounded=1;whiteSpace=wrap;html=1;" parent="1" vertex="1">
                    <mxGeometry x="158" y="380" width="85" height="40" as="geometry"/>
                </mxCell>
                <mxCell id="52" value="&lt;b&gt;Camera&lt;/b&gt;" style="text;html=1;align=center;verticalAlign=middle;resizable=0;points=[];autosize=1;strokeColor=none;fillColor=none;fontSize=8;" parent="1" vertex="1">
                    <mxGeometry x="595" y="200" width="50" height="20" as="geometry"/>
                </mxCell>
                <mxCell id="51" value="&lt;b&gt;Robot&lt;/b&gt;" style="text;html=1;align=center;verticalAlign=middle;resizable=0;points=[];autosize=1;strokeColor=none;fillColor=none;fontSize=8;" parent="1" vertex="1">
                    <mxGeometry x="-21.89" y="230" width="50" height="20" as="geometry"/>
                </mxCell>
                <mxCell id="69" style="edgeStyle=orthogonalEdgeStyle;html=1;entryX=0.017;entryY=0.602;entryDx=0;entryDy=0;entryPerimeter=0;fontSize=8;" parent="1" source="55" target="68" edge="1">
                    <mxGeometry relative="1" as="geometry">
                        <Array as="points">
                            <mxPoint x="580" y="400"/>
                            <mxPoint x="580" y="464"/>
                        </Array>
                    </mxGeometry>
                </mxCell>
                <mxCell id="55" value="&lt;b&gt;Get User Input&lt;/b&gt;" style="rounded=1;whiteSpace=wrap;html=1;" parent="1" vertex="1">
                    <mxGeometry x="477.5" y="380" width="90" height="40" as="geometry"/>
                </mxCell>
                <mxCell id="70" style="edgeStyle=orthogonalEdgeStyle;html=1;entryX=0.5;entryY=1;entryDx=0;entryDy=0;fontSize=8;" parent="1" source="62" target="68" edge="1">
                    <mxGeometry relative="1" as="geometry"/>
                </mxCell>
                <mxCell id="72" value="&lt;b&gt;Audio In&lt;/b&gt;" style="edgeLabel;html=1;align=center;verticalAlign=middle;resizable=0;points=[];fontSize=8;" parent="70" vertex="1" connectable="0">
                    <mxGeometry x="-0.0696" relative="1" as="geometry">
                        <mxPoint x="12" y="-7" as="offset"/>
                    </mxGeometry>
                </mxCell>
                <mxCell id="62" value="" style="html=1;verticalLabelPosition=bottom;align=center;labelBackgroundColor=#ffffff;verticalAlign=top;strokeWidth=2;strokeColor=#000000;shadow=0;dashed=0;shape=mxgraph.ios7.icons.microphone;fontSize=8;fillColor=#FFFFFF;" parent="1" vertex="1">
                    <mxGeometry x="710" y="500" width="20" height="40" as="geometry"/>
                </mxCell>
                <mxCell id="66" value="" style="html=1;verticalLabelPosition=bottom;align=center;labelBackgroundColor=#ffffff;verticalAlign=top;strokeWidth=2;strokeColor=#000000;shadow=0;dashed=0;shape=mxgraph.ios7.icons.volume_2;pointerEvents=1;fontSize=8;fillColor=#FFFFFF;" parent="1" vertex="1">
                    <mxGeometry x="855.33" y="560" width="44.67" height="40" as="geometry"/>
                </mxCell>
                <mxCell id="93" style="edgeStyle=orthogonalEdgeStyle;html=1;fontSize=8;" parent="1" source="68" target="73" edge="1">
                    <mxGeometry relative="1" as="geometry"/>
                </mxCell>
                <mxCell id="68" value="&lt;b&gt;Starts Listening&lt;/b&gt;" style="rounded=1;whiteSpace=wrap;html=1;" parent="1" vertex="1">
                    <mxGeometry x="600" y="440" width="90" height="40" as="geometry"/>
                </mxCell>
                <mxCell id="94" style="edgeStyle=orthogonalEdgeStyle;html=1;entryX=0.5;entryY=1;entryDx=0;entryDy=0;fontSize=8;" parent="1" source="73" target="75" edge="1">
                    <mxGeometry relative="1" as="geometry"/>
                </mxCell>
                <mxCell id="73" value="&lt;b&gt;End of Audio&lt;/b&gt;" style="rounded=1;whiteSpace=wrap;html=1;" parent="1" vertex="1">
                    <mxGeometry x="600" y="375" width="90" height="40" as="geometry"/>
                </mxCell>
                <mxCell id="79" style="edgeStyle=orthogonalEdgeStyle;html=1;entryX=0.345;entryY=0.129;entryDx=0;entryDy=0;entryPerimeter=0;fontSize=8;" parent="1" source="75" target="4" edge="1">
                    <mxGeometry relative="1" as="geometry"/>
                </mxCell>
                <mxCell id="80" value="&lt;b&gt;Audio&lt;/b&gt;" style="edgeLabel;html=1;align=center;verticalAlign=middle;resizable=0;points=[];fontSize=8;" parent="79" vertex="1" connectable="0">
                    <mxGeometry x="-0.7678" y="1" relative="1" as="geometry">
                        <mxPoint x="38" y="-9" as="offset"/>
                    </mxGeometry>
                </mxCell>
                <mxCell id="87" style="edgeStyle=orthogonalEdgeStyle;html=1;entryX=0;entryY=0.5;entryDx=0;entryDy=0;fontSize=7;" parent="1" source="85" target="55" edge="1">
                    <mxGeometry relative="1" as="geometry"/>
                </mxCell>
                <mxCell id="90" value="&lt;b style=&quot;border-color: var(--border-color);&quot;&gt;No Goal /&lt;br style=&quot;border-color: var(--border-color);&quot;&gt;Goal Achieved&lt;/b&gt;" style="edgeLabel;html=1;align=center;verticalAlign=middle;resizable=0;points=[];fontSize=8;" parent="87" vertex="1" connectable="0">
                    <mxGeometry x="-0.2236" relative="1" as="geometry">
                        <mxPoint y="-13" as="offset"/>
                    </mxGeometry>
                </mxCell>
                <mxCell id="102" style="edgeStyle=orthogonalEdgeStyle;html=1;entryX=0.5;entryY=0;entryDx=0;entryDy=0;fontSize=8;" parent="1" source="85" target="101" edge="1">
                    <mxGeometry relative="1" as="geometry"/>
                </mxCell>
                <mxCell id="85" value="&lt;b&gt;No Task&lt;/b&gt;" style="rhombus;whiteSpace=wrap;html=1;strokeColor=#000000;fontSize=8;fillColor=#FFFFFF;" parent="1" vertex="1">
                    <mxGeometry x="360" y="375" width="55" height="50" as="geometry"/>
                </mxCell>
                <mxCell id="75" value="&lt;b&gt;Speech to Text&lt;/b&gt;" style="rounded=1;whiteSpace=wrap;html=1;" parent="1" vertex="1">
                    <mxGeometry x="600" y="310" width="90" height="40" as="geometry"/>
                </mxCell>
                <mxCell id="98" style="edgeStyle=orthogonalEdgeStyle;html=1;entryX=0.5;entryY=0;entryDx=0;entryDy=0;fontSize=8;" parent="1" source="96" target="85" edge="1">
                    <mxGeometry relative="1" as="geometry">
                        <Array as="points">
                            <mxPoint x="388" y="280"/>
                        </Array>
                    </mxGeometry>
                </mxCell>
                <mxCell id="96" value="&lt;b&gt;Create Goal&lt;/b&gt;" style="rounded=1;whiteSpace=wrap;html=1;" parent="1" vertex="1">
                    <mxGeometry x="595" y="260" width="90" height="40" as="geometry"/>
                </mxCell>
                <mxCell id="104" style="edgeStyle=orthogonalEdgeStyle;html=1;entryX=0.25;entryY=0.833;entryDx=0;entryDy=0;entryPerimeter=0;fontSize=8;" parent="1" source="100" target="4" edge="1">
                    <mxGeometry relative="1" as="geometry"/>
                </mxCell>
                <mxCell id="105" value="&lt;b&gt;Status + Snapshot with guidelines&lt;/b&gt;" style="edgeLabel;html=1;align=center;verticalAlign=middle;resizable=0;points=[];fontSize=8;" parent="104" vertex="1" connectable="0">
                    <mxGeometry x="-0.6191" relative="1" as="geometry">
                        <mxPoint x="18" y="-8" as="offset"/>
                    </mxGeometry>
                </mxCell>
                <mxCell id="100" value="&lt;b&gt;Get Instructions&lt;/b&gt;" style="rounded=1;whiteSpace=wrap;html=1;" parent="1" vertex="1">
                    <mxGeometry x="345" y="538.2" width="85" height="40" as="geometry"/>
                </mxCell>
                <mxCell id="103" style="edgeStyle=orthogonalEdgeStyle;html=1;entryX=0.5;entryY=0;entryDx=0;entryDy=0;fontSize=8;" parent="1" source="101" target="100" edge="1">
                    <mxGeometry relative="1" as="geometry"/>
                </mxCell>
                <mxCell id="101" value="&lt;b&gt;&lt;font style=&quot;font-size: 11px;&quot;&gt;Update latest snapshot with guidelines&lt;/font&gt;&lt;/b&gt;" style="rounded=1;whiteSpace=wrap;html=1;" parent="1" vertex="1">
                    <mxGeometry x="337.5" y="460" width="100" height="50" as="geometry"/>
                </mxCell>
                <mxCell id="113" style="edgeStyle=orthogonalEdgeStyle;html=1;entryX=0.724;entryY=0.985;entryDx=0;entryDy=0;entryPerimeter=0;fontSize=11;" parent="1" source="107" target="20" edge="1">
                    <mxGeometry relative="1" as="geometry"/>
                </mxCell>
                <mxCell id="114" value="&lt;b&gt;&lt;font style=&quot;font-size: 8px;&quot;&gt;Add Tasks&lt;/font&gt;&lt;/b&gt;" style="edgeLabel;html=1;align=center;verticalAlign=middle;resizable=0;points=[];fontSize=11;" parent="113" vertex="1" connectable="0">
                    <mxGeometry x="0.56" y="1" relative="1" as="geometry">
                        <mxPoint x="-25" y="32" as="offset"/>
                    </mxGeometry>
                </mxCell>
                <mxCell id="107" value="&lt;b&gt;&lt;font style=&quot;font-size: 11px;&quot;&gt;Add List of tasks to the queue&lt;/font&gt;&lt;/b&gt;" style="rounded=1;whiteSpace=wrap;html=1;" parent="1" vertex="1">
                    <mxGeometry x="225" y="538.2" width="95" height="41.8" as="geometry"/>
                </mxCell>
                <mxCell id="111" style="edgeStyle=orthogonalEdgeStyle;html=1;entryX=0.5;entryY=1;entryDx=0;entryDy=0;fontSize=11;" parent="1" source="108" target="107" edge="1">
                    <mxGeometry relative="1" as="geometry"/>
                </mxCell>
                <mxCell id="112" value="&lt;b&gt;No&lt;/b&gt;" style="edgeLabel;html=1;align=center;verticalAlign=middle;resizable=0;points=[];fontSize=11;" parent="111" vertex="1" connectable="0">
                    <mxGeometry x="-0.6346" y="-1" relative="1" as="geometry">
                        <mxPoint x="-13" y="-9" as="offset"/>
                    </mxGeometry>
                </mxCell>
                <mxCell id="116" style="edgeStyle=orthogonalEdgeStyle;html=1;entryX=0;entryY=0.5;entryDx=0;entryDy=0;fontSize=8;" parent="1" source="108" target="115" edge="1">
                    <mxGeometry relative="1" as="geometry"/>
                </mxCell>
                <mxCell id="117" value="&lt;b style=&quot;font-size: 11px;&quot;&gt;Yes&lt;/b&gt;" style="edgeLabel;html=1;align=center;verticalAlign=middle;resizable=0;points=[];fontSize=11;" parent="116" vertex="1" connectable="0">
                    <mxGeometry x="-0.2519" y="-1" relative="1" as="geometry">
                        <mxPoint y="-11" as="offset"/>
                    </mxGeometry>
                </mxCell>
                <mxCell id="108" value="&lt;b&gt;Goal Achieved?&lt;/b&gt;" style="rhombus;whiteSpace=wrap;html=1;strokeColor=#000000;fontSize=8;fillColor=#FFFFFF;" parent="1" vertex="1">
                    <mxGeometry x="360" y="610" width="60" height="60" as="geometry"/>
                </mxCell>
                <mxCell id="119" style="edgeStyle=orthogonalEdgeStyle;html=1;entryX=0;entryY=0.5;entryDx=0;entryDy=0;fontSize=11;" parent="1" source="115" target="118" edge="1">
                    <mxGeometry relative="1" as="geometry"/>
                </mxCell>
                <mxCell id="115" value="&lt;b&gt;Report goal status&lt;/b&gt;" style="rounded=1;whiteSpace=wrap;html=1;" parent="1" vertex="1">
                    <mxGeometry x="480" y="620" width="85" height="40" as="geometry"/>
                </mxCell>
                <mxCell id="120" style="edgeStyle=orthogonalEdgeStyle;html=1;entryX=0.706;entryY=0.929;entryDx=0;entryDy=0;entryPerimeter=0;fontSize=11;" parent="1" source="118" target="4" edge="1">
                    <mxGeometry relative="1" as="geometry">
                        <Array as="points">
                            <mxPoint x="820" y="630"/>
                        </Array>
                    </mxGeometry>
                </mxCell>
                <mxCell id="122" value="&lt;b&gt;Text&lt;/b&gt;" style="edgeLabel;html=1;align=center;verticalAlign=middle;resizable=0;points=[];fontSize=11;" parent="120" vertex="1" connectable="0">
                    <mxGeometry x="-0.3346" y="1" relative="1" as="geometry">
                        <mxPoint x="-53" y="-9" as="offset"/>
                    </mxGeometry>
                </mxCell>
                <mxCell id="144" style="edgeStyle=orthogonalEdgeStyle;html=1;entryX=0;entryY=0.5;entryDx=0;entryDy=0;" edge="1" parent="1" source="118" target="131">
                    <mxGeometry relative="1" as="geometry">
                        <Array as="points">
                            <mxPoint x="790" y="650"/>
                        </Array>
                    </mxGeometry>
                </mxCell>
                <mxCell id="118" value="&lt;b&gt;Text to Speech&lt;/b&gt;" style="rounded=1;whiteSpace=wrap;html=1;" parent="1" vertex="1">
                    <mxGeometry x="600" y="620" width="90" height="40" as="geometry"/>
                </mxCell>
                <mxCell id="131" value="&lt;b&gt;Clear Goal&lt;/b&gt;" style="rounded=1;whiteSpace=wrap;html=1;" parent="1" vertex="1">
                    <mxGeometry x="837.67" y="630" width="80" height="40" as="geometry"/>
                </mxCell>
                <mxCell id="139" value="&lt;h1 style=&quot;border-color: var(--border-color); text-align: left;&quot;&gt;&lt;font style=&quot;border-color: var(--border-color);&quot;&gt;Vox-Strider Design Overview&lt;/font&gt;&lt;/h1&gt;" style="text;html=1;strokeColor=none;fillColor=none;align=center;verticalAlign=middle;whiteSpace=wrap;rounded=0;fontSize=11;" parent="1" vertex="1">
                    <mxGeometry x="-60" y="90" width="312" height="30" as="geometry"/>
                </mxCell>
                <mxCell id="142" value="&lt;div style=&quot;text-align: justify;&quot;&gt;&lt;span style=&quot;background-color: initial;&quot;&gt;Vox-Strider is a self-balancing self-driving bipedal robot controlled by multi-modal large language models with text-to-voice and voice-to-text interface.&lt;/span&gt;&lt;/div&gt;" style="text;html=1;strokeColor=none;fillColor=none;align=left;verticalAlign=middle;whiteSpace=wrap;rounded=0;fontSize=11;" parent="1" vertex="1">
                    <mxGeometry x="-60" y="120" width="320" height="45" as="geometry"/>
                </mxCell>
            </root>
        </mxGraphModel>
    </diagram>
</mxfile>